<?xml version="1.0" encoding="utf-8"?>
<!-- Generator: Adobe Illustrator 21.0.2, SVG Export Plug-In . SVG Version: 6.00 Build 0)  -->
<svg version="1.1" id="Layer_1" xmlns="http://www.w3.org/2000/svg" xmlns:xlink="http://www.w3.org/1999/xlink" x="0px" y="0px"
	 viewBox="0 0 1200 385" style="enable-background:new 0 0 1200 385;" xml:space="preserve">
<style type="text/css">
	.st0{fill:#FB713F;}
	.st1{fill:#3E444D;}
	.st2{fill:#FFFFFF;}
</style>
<g>
	<path class="st0" d="M346.1,70.3h-116c-32.5,0-53.2,23.4-59.6,50.4c-5,19.7-6.9,28.9-28,111.4v0.9c0,0.5,0,0.9,0,0.9L122,312.8
		c0,0-5,23.4,25.2,5.5l56.4-34.4h92.1c33,0,53.2-23.4,59.6-50.9c0-0.5,15.6-61.4,28.4-112.3C391.5,88.2,377.3,70.3,346.1,70.3z"/>
	<path class="st1" d="M561.5,146.9h-0.9h-8.2l-6.9,26.1l-20.6,77H557c4.1-14.7,19.7-74.2,21.1-78.4
		C580.8,156.5,575.3,147.8,561.5,146.9z M948.4,146.9h-0.9h-8.2l-6.9,26.1l-20.6,77h32.1c4.1-14.7,20.2-74.2,21.1-78.4
		C968.1,156.5,962.1,147.8,948.4,146.9L948.4,146.9z M658.7,146.9h-59.1l-38,141.2h33.9l10.1-38H634c15.6,0,25.7-11.5,28.9-24.3
		s10.1-38,14.2-54.1S673.8,146.9,658.7,146.9L658.7,146.9z M644.5,175.8c-0.5,2.3-11,41.7-11.9,44c-0.5,1.8-2.3,3.2-4.1,3.2l0,0
		h-15.6l14.2-50.4h14.7C645,172.1,645,173.5,644.5,175.8L644.5,175.8z M792.5,146.9l-20.2,72.9c-0.5,1.8-1.8,2.7-3.7,3.2H760
		c-1.4,0-2.3-0.9-2.3-2.3c0-0.5,0-0.5,0-0.9l20.2-72.9h-31.6l-20.2,72.9c-0.5,1.8-1.8,2.7-3.7,3.2h-8.7c-1.4,0-2.3-0.9-2.3-2.3
		c0-0.5,0-0.5,0-0.9l20.2-72.9H700c-7.3,26.6-21.5,77.9-22,80.2c-2.3,9.6,6,22.9,17,22.9h77c11,0,26.1-8.7,29.3-20.6
		c1.4-5.5,15.6-56.4,22.5-82.5L792.5,146.9L792.5,146.9z M1045.5,146.9h-59.1l-38.5,141.2h33.9l10.1-38h28
		c15.6,0,25.7-11.5,28.9-24.3c3.2-12.8,10.1-38,14.2-54.1S1060.7,146.9,1045.5,146.9L1045.5,146.9z M1031.3,175.3
		c-0.5,2.3-11,41.7-11.9,44c-0.5,1.8-2.3,3.2-4.1,3.2h-0.5h-15.6l14.2-50.4h14.7C1031.8,172.1,1031.8,173.5,1031.3,175.3
		L1031.3,175.3z M526.7,179c4.1-3.2,6.4-8.2,6.9-13.3c0.9-9.2-6-17.4-15.6-18.3c-0.5,0-1.4,0-1.8,0H452l-6.9,26.6H491l-58.7,45.8
		c-3.2,3.2-5.5,7.3-5.5,11.9c-0.9,9.6,6,17.9,15.6,18.8c0.5,0,1.4,0,1.8,0h64.2l7.3-27.5h-44.9L526.7,179z M898.4,146.9h-27.5
		l11.9-44.5h-31.2l-17,62.3l0,0L811.8,250h33.9l21.1-77.9h14.7c3.2,0,3.2,1.4,2.7,3.7c0,0.9-10.1,38.5-19.7,74.2h31.6
		c9.2-34.4,18.8-70.6,20.6-78.4C920.4,155.6,913.5,146.9,898.4,146.9L898.4,146.9z M1083.1,149.2c0.5,0,0.5-0.5,0.5-0.9
		c0-0.5,0-0.5,0-0.9c-0.5-0.5-0.5-0.5-0.9-0.5h-9.6c-0.5,0-0.9,0-1.4,0.5c-0.5,0-0.5,0.5-0.5,0.9c0,0.5,0,0.5,0,0.9
		c0.5,0.5,0.5,0.5,0.9,0.5h3.2l-3.7,11c0,0.5,0,0.9,0,1.4s0.5,0.5,0.9,0.5c0.5,0,0.9,0,1.4-0.5s0.9-0.9,0.9-1.4l3.7-11h3.2
		C1082.2,149.6,1082.6,149.6,1083.1,149.2L1083.1,149.2z M1099.6,147.3c-0.5-0.5-0.9-0.5-1.4-0.5h-0.9c-0.5,0-0.9,0-1.4,0
		s-0.5,0.5-0.9,0.5c-0.5,0.5-0.5,0.9-0.9,1.4l-5,8.2l0.5-8.2c0-0.5,0-0.9,0-1.4s0-0.5-0.5-0.5s-0.9,0-1.4,0h-0.9
		c-0.5,0-0.9,0-1.4,0.5s-0.9,0.9-0.9,1.4l-4.1,11.9c0,0.5,0,0.9,0,1.4s0.5,0.5,0.9,0.5c0.5,0,0.9,0,1.4-0.5s0.5-0.9,0.9-1.4
		l3.2-10.5l-0.9,9.6c0,0.5,0,0.5,0,0.9s0,0.5,0,0.9c0,0.5,0,0.5,0.5,0.5s0.5,0.5,0.9,0c0.5,0,0.9,0,1.4-0.5c0.5,0,0.5-0.5,0.9-0.9
		c0-0.5,0.5-0.9,0.9-1.4l5.5-9.6l-3.2,10.5c0,0.5,0,0.9,0,1.4s0.5,0.5,0.9,0.5c0.5,0,0.9,0,1.4-0.5s0.5-0.9,0.9-1.4l4.1-11.9
		C1100.1,148.7,1100.1,147.8,1099.6,147.3L1099.6,147.3z"/>
	<path class="st2" d="M339.7,129c-0.5,7.8-3.7,14.7-9.6,19.2l-80.7,63.2h65.1L304,250.9h-93c-13.7,0-24.7-10.5-25.2-24.3
		c0-0.9,0-1.8,0-2.7c0-6.9,2.7-12.8,7.8-17.4l84.8-66h-66.5l10.1-38h92.6c13.3-0.5,24.7,10.1,25.2,23.8
		C339.7,127.2,339.7,128.1,339.7,129z"/>
</g>
</svg>
